HIERARCHY
ROOT Hips
{
	OFFSET 62.890800 8.863803 43.568401
	CHANNELS 6 Xposition Yposition Zposition Zrotation Xrotation Yrotation
	JOINT Chest
	{
		OFFSET -0.160400 1.630001 7.806301
		CHANNELS 6 Xposition Yposition Zposition Zrotation Xrotation Yrotation
		JOINT Chest2
		{
			OFFSET 0.000000 0.000000 3.197998
			CHANNELS 6 Xposition Yposition Zposition Zrotation Xrotation Yrotation
			JOINT Neck
			{
				OFFSET 0.000000 0.000001 7.440701
				CHANNELS 6 Xposition Yposition Zposition Zrotation Xrotation Yrotation
				JOINT Head
				{
					OFFSET 0.000000 0.000000 2.173901
					CHANNELS 6 Xposition Yposition Zposition Zrotation Xrotation Yrotation
					End Site
					{
						OFFSET 0.000000 0.000001 10.420303
					}
				}
			}
			JOINT LeftCollar
			{
				OFFSET 2.426399 -1.880099 4.759399
				CHANNELS 6 Xposition Yposition Zposition Zrotation Xrotation Yrotation
				JOINT LeftShoulder
				{
					OFFSET 4.420197 0.000000 0.000000
					CHANNELS 6 Xposition Yposition Zposition Zrotation Xrotation Yrotation
					JOINT LeftElbow
					{
						OFFSET 0.000000 -0.000001 -10.347099
						CHANNELS 6 Xposition Yposition Zposition Zrotation Xrotation Yrotation
						JOINT LeftWrist
						{
							OFFSET 0.000000 -0.000001 -12.496300
							CHANNELS 6 Xposition Yposition Zposition Zrotation Xrotation Yrotation
							End Site
							{
								OFFSET 0.000000 0.000000 -2.173901
							}
						}
					}
				}
			}
			JOINT RightCollar
			{
				OFFSET -2.781502 -1.903799 5.072601
				CHANNELS 6 Xposition Yposition Zposition Zrotation Xrotation Yrotation
				JOINT RightShoulder
				{
					OFFSET -4.012100 0.000000 0.000000
					CHANNELS 6 Xposition Yposition Zposition Zrotation Xrotation Yrotation
					JOINT RightElbow
					{
						OFFSET 0.000000 -0.000001 -10.346600
						CHANNELS 6 Xposition Yposition Zposition Zrotation Xrotation Yrotation
						JOINT RightWrist
						{
							OFFSET 0.000000 -0.000001 -12.562599
							CHANNELS 6 Xposition Yposition Zposition Zrotation Xrotation Yrotation
							End Site
							{
								OFFSET 0.000000 0.000000 -2.173901
							}
						}
					}
				}
			}
		}
	}
	JOINT LeftHip
	{
		OFFSET 2.047997 -0.047200 -2.693199
		CHANNELS 6 Xposition Yposition Zposition Zrotation Xrotation Yrotation
		JOINT LeftKnee
		{
			OFFSET 0.000000 -0.000001 -18.824400
			CHANNELS 6 Xposition Yposition Zposition Zrotation Xrotation Yrotation
			JOINT LeftAnkle
			{
				OFFSET 0.000000 -0.000002 -19.078199
				CHANNELS 6 Xposition Yposition Zposition Zrotation Xrotation Yrotation
				End Site
				{
					OFFSET 0.000000 -9.342100 0.000001
				}
			}
		}
	}
	JOINT RightHip
	{
		OFFSET -2.129898 -0.022300 -2.538300
		CHANNELS 6 Xposition Yposition Zposition Zrotation Xrotation Yrotation
		JOINT RightKnee
		{
			OFFSET 0.000000 -0.000001 -18.644600
			CHANNELS 6 Xposition Yposition Zposition Zrotation Xrotation Yrotation
			JOINT RightAnkle
			{
				OFFSET 0.000000 -0.000002 -18.801399
				CHANNELS 6 Xposition Yposition Zposition Zrotation Xrotation Yrotation
				End Site
				{
					OFFSET 0.000000 -8.914600 0.000001
				}
			}
		}
	}
}
MOTION
Frames: 6
Frame Time: 0.041667
64.310799 37.758801 32.194172 -395.447189 29.962466 -2.114352 -0.160401 1.629996 7.806302 -11.841041 16.043617 -0.599953 0.000008 0.000006 3.198002 4.350654 -9.840705 0.296968 -0.000005 0.000002 7.440700 -29.110857 17.329793 17.714610 -0.000005 0.000000 2.173905 -2.700740 0.389634 -4.670119 2.426407 -1.880102 4.759393 -168.819791 179.409795 -185.921082 4.420201 -0.000002 0.000001 -26.222575 4.441952 -123.866915 -0.000001 0.000010 -10.347098 543.600768 -169.658047 -541.488436 -0.000001 -0.000008 -12.496298 -21.776395 -2.082388 345.977905 -2.781504 -1.903800 5.072599 -173.359053 -195.501188 171.033920 -4.012096 0.000003 0.000000 -8.379174 42.302176 413.864466 -0.000002 -0.000001 -10.346602 -347.179253 -1.393934 -2.129110 -0.000006 -0.000000 -12.562600 1773.356657 9.973767 58.847824 2.047993 -0.047198 -2.693196 473.512099 -34.703235 99.219706 -0.000010 -0.000000 -18.824402 39.755717 141.039677 -112.005028 -0.000003 -0.000008 -19.078201 -346.908504 11.513200 19.017970 -2.129904 -0.022301 -2.538292 -472.079016 -29.103470 -54.701759 0.000003 0.000003 -18.644588 360.972110 149.514043 80.982466 0.000004 0.000000 -18.801403 -42.535983 -22.125573 -39.620736
64.301697 37.776302 32.295769 -395.833969 29.757748 -2.037249 -0.160408 1.629996 7.806302 -11.348436 16.088417 -0.740447 0.000010 -0.000003 3.198006 4.290075 -9.840128 0.297022 -0.000005 0.000006 7.440700 -29.088420 17.391758 17.916858 -0.000006 0.000005 2.173908 -2.671219 0.368321 -4.654985 2.426402 -1.880101 4.759396 -168.837413 179.404986 -185.923924 4.420191 -0.000010 -0.000007 -25.932266 4.477856 -123.769216 -0.000010 -0.000002 -10.347091 544.071122 -169.555444 -541.513735 0.000006 -0.000006 -12.496295 -21.901934 -2.093288 345.827668 -2.781510 -1.903796 5.072592 -173.406509 -195.427504 171.188419 -4.012103 -0.000006 -0.000001 -8.126342 42.075051 413.936347 0.000002 -0.000006 -10.346596 -347.567399 -1.378120 -2.102756 0.000001 0.000005 -12.562602 1773.562655 9.843033 58.849046 2.047989 -0.047206 -2.693199 473.159278 -35.085186 98.657301 -0.000002 0.000006 -18.824394 40.150123 140.692772 -112.403938 -0.000003 -0.000003 -19.078203 -346.726849 11.578754 19.288287 -2.129904 -0.022303 -2.538300 -472.488827 -28.714337 -54.776809 -0.000001 0.000001 -18.644600 361.282255 149.454170 81.309447 -0.000001 -0.000003 -18.801399 -42.284233 -22.147559 -39.534795
64.295303 37.791306 32.400673 -396.261102 29.535790 -1.945764 -0.160404 1.629995 7.806304 -10.864364 16.135728 -0.849912 0.000002 0.000004 3.197994 4.218538 -9.855303 0.295968 -0.000008 0.000008 7.440708 -29.082058 17.472124 18.101289 -0.000001 0.000011 2.173906 -2.624653 0.331655 -4.650289 2.426408 -1.880096 4.759398 -168.911166 179.317492 -185.847630 4.420182 -0.000002 0.000001 -25.529792 4.583191 -123.766375 0.000002 0.000010 -10.347088 544.629012 -169.484451 -541.544498 0.000001 -0.000006 -12.496299 -21.993709 -2.109688 345.653689 -2.781500 -1.903798 5.072605 -173.399092 -195.399076 171.254207 -4.012106 -0.000002 0.000003 -8.014588 41.834871 414.119314 0.000002 -0.000006 -10.346597 -347.910848 -1.334614 -2.057372 0.000004 -0.000001 -12.562608 1773.798597 9.694394 58.833644 2.047997 -0.047201 -2.693200 472.826020 -35.480924 98.035624 0.000003 0.000004 -18.824398 40.670778 140.251746 -112.871950 0.000008 -0.000004 -19.078201 -346.685321 11.681098 19.302618 -2.129897 -0.022309 -2.538304 -472.807223 -28.374711 -54.783991 0.000002 0.000009 -18.644592 361.510383 149.432832 81.705817 0.000001 -0.000004 -18.801401 -42.096495 -22.216328 -39.527490
64.289902 37.804092 32.507172 -396.715255 29.280000 -1.846967 -0.160402 1.630002 7.806301 -10.454080 16.190508 -0.904718 0.000012 -0.000003 3.197999 4.161513 -9.871588 0.295085 -0.000007 0.000007 7.440701 -29.009862 17.581704 18.227731 -0.000009 0.000003 2.173908 -2.585405 0.281709 -4.627309 2.426393 -1.880094 4.759391 -169.026855 179.205804 -185.735520 4.420183 -0.000001 -0.000001 -25.049478 4.723879 -123.801154 0.000001 0.000007 -10.347092 545.277388 -169.418813 -541.574059 -0.000003 -0.000001 -12.496296 -22.061120 -2.127100 345.479847 -2.781509 -1.903796 5.072601 -173.408026 -195.368928 171.268127 -4.012102 0.000001 -0.000004 -7.893615 41.692335 414.378424 -0.000001 -0.000004 -10.346593 -348.288612 -1.285202 -2.012398 0.000009 -0.000000 -12.562608 1773.983504 9.589739 58.807819 2.047995 -0.047195 -2.693197 472.507405 -35.864336 97.340393 0.000002 -0.000004 -18.824402 41.287418 139.738553 -113.396406 -0.000009 0.000003 -19.078201 -346.778021 11.781764 19.155452 -2.129902 -0.022297 -2.538301 -473.014533 -28.112417 -54.700844 -0.000002 0.000004 -18.644594 361.653490 149.507390 82.154704 0.000003 0.000000 -18.801392 -42.022572 -22.387381 -39.700939
64.283501 37.814896 32.615368 -397.219541 28.999545 -1.725512 -0.160397 1.630003 7.806306 -10.128001 16.224255 -0.892872 0.000007 -0.000002 3.198005 4.126132 -9.871464 0.294429 -0.000002 0.000001 7.440709 -28.834330 17.735787 18.280472 -0.000004 0.000009 2.173903 -2.554578 0.238936 -4.587018 2.426396 -1.880106 4.759409 -169.168705 179.111643 -185.612071 4.420189 0.000003 0.000000 -24.556203 4.859559 -123.833625 0.000005 0.000007 -10.347094 546.040839 -169.367613 -541.590069 -0.000001 -0.000002 -12.496297 -22.134109 -2.157734 345.283848 -2.781497 -1.903802 5.072601 -173.423653 -195.354803 171.346633 -4.012099 -0.000004 0.000000 -7.662147 41.565540 414.543387 0.000004 -0.000000 -10.346603 -348.580207 -1.209246 -1.958252 0.000001 -0.000011 -12.562593 1773.913345 9.467289 58.736656 2.047997 -0.047199 -2.693202 472.238405 -36.222737 96.574756 0.000003 0.000005 -18.824406 41.926153 139.262544 -113.920206 -0.000001 0.000006 -19.078201 -346.893314 11.813818 18.971759 -2.129897 -0.022294 -2.538299 -473.066880 -27.938894 -54.515817 -0.000002 -0.000000 -18.644598 361.653162 149.784519 82.689043 0.000002 -0.000001 -18.801394 -42.203411 -22.650876 -40.067601
64.272903 37.823997 32.727570 -397.806391 28.690558 -1.552538 -0.160397 1.629999 7.806308 -9.878069 16.231700 -0.807438 0.000001 -0.000008 3.198009 4.110106 -9.850909 0.294341 -0.000005 -0.000010 7.440701 -28.548321 17.930734 18.246803 -0.000006 0.000002 2.173903 -2.537861 0.214844 -4.543150 2.426400 -1.880106 4.759394 -169.333217 179.055281 -185.505930 4.420185 -0.000006 -0.000004 -24.050122 4.988247 -123.825524 -0.000000 0.000010 -10.347096 547.074985 -169.326974 -541.575098 -0.000010 0.000010 -12.496295 -22.242132 -2.229313 345.110198 -2.781500 -1.903806 5.072596 -173.512377 -195.316773 171.556307 -4.012109 -0.000002 0.000005 -7.217907 41.471908 414.564615 0.000003 0.000006 -10.346600 -348.827733 -1.103347 -1.898549 0.000001 0.000003 -12.562603 1773.512604 9.338539 58.629128 2.048001 -0.047197 -2.693198 472.053061 -36.532524 95.732922 -0.000001 0.000010 -18.824404 42.699563 138.614823 -114.575119 0.000008 -0.000009 -19.078205 -347.292607 11.827849 18.599341 -2.129887 -0.022302 -2.538301 -472.822195 -27.932031 -54.152974 -0.000006 0.000001 -18.644600 361.373834 150.032017 83.290872 0.000009 -0.000002 -18.801399 -42.453550 -22.952700 -40.406235
